<?xml version="1.0" encoding="utf-8"?>
<!-- Generator: Adobe Illustrator 18.0.0, SVG Export Plug-In . SVG Version: 6.00 Build 0)  -->
<!DOCTYPE svg PUBLIC "-//W3C//DTD SVG 1.1//EN" "http://www.w3.org/Graphics/SVG/1.1/DTD/svg11.dtd">
<svg version="1.1" id="Layer_1" xmlns="http://www.w3.org/2000/svg" xmlns:xlink="http://www.w3.org/1999/xlink" x="0px" y="0px"
	 viewBox="0 0 1024 1024" enable-background="new 0 0 1024 1024" xml:space="preserve">
<g>
	<path fill="#2FC3DA" d="M227.3,436.2c1.9,0.2,3.9,0.1,5.9-0.1c6.8-0.6,9,4,10.4,11.1c5.3,27.1,17.9,50.5,39.6,68
		c7.6,6.2,2.1,10.5,0,15.7c-2.3,5.7-5.7,6.1-11.2,4.2c-27.1-9-54.2-8.9-81,1.2c-4.4,1.6-8.2,2.3-10.3-3c-1.8-4.6-7.8-8.8-1.2-14.6
		c21.6-19.2,32.1-44.5,37.6-72.1C218.4,439.5,220.8,435.5,227.3,436.2z"/>
	<path fill="#F44745" d="M297.4,488.8c-13.1-12.5-20-26.6-24.5-44.2c-0.5-1.9,1.4-3.8,3.4-3c11.1,4,21.2,7.6,31,11.3
		c1.1,0.4,2.5,2.1,1.7,4.9c-2.4,9.5-4.5,19-7.2,29.8C301.2,489.5,298.8,490.2,297.4,488.8z"/>
	<path fill="#282247" d="M204.5,562.6c18.9-5.8,35.7-5.7,54.5-0.6c1.2,0.3,1.5,1.8,0.6,2.6c-9,8.2-16.6,15.3-24.6,22.3
		c-1.7,1.5-4.6,1.5-6.5,0c-7.9-6.6-15.6-13.6-24.4-21.6C203.1,564.4,203.4,562.9,204.5,562.6z"/>
	<path fill="#FFC521" d="M185.2,444.1c-2.1,18-9.1,32-20.3,46.4c-1.3,1.6-3.8,1.2-4.4-0.8c-3.6-11.3-6.8-21.4-9.7-31.6
		c-0.3-1.2,0.1-3.2,2.8-4.3c9-3.9,17.9-7.9,28.1-12.3C183.4,440.7,185.4,442.1,185.2,444.1z"/>
</g>
<g>
	<path fill="#2FC3DA" d="M385.9,471.9h15.8v82.7h-15.8V471.9z"/>
	<path fill="#2FC3DA" d="M418.8,554.7v-59.1h15.7v3.4c0,0,8-4.8,14.8-4.8c16.5,0,20.7,10.4,20.7,28.4v32h-15.8V523
		c0-9-1.2-14.8-8.9-14.8c-5.5,0-10.7,2.2-10.7,2.2v44.2h-15.9V554.7z"/>
	<path fill="#2FC3DA" d="M487,554.7v-59.1h15.7v3.4c0,0,8.1-4.8,13.9-4.8c6.6,0,11.2,1.7,14.8,5.5c0,0,10.9-5.5,19.9-5.5
		c16.1,0,20.7,9.4,20.7,28.4v32h-15.8V523c0-9-1.2-14.8-8.3-14.8c-4.8,0-11,2.3-11,2.3s0.4,8.9,0.4,13.5v30.6h-15.7v-30.4
		c0-10.6-1-16-8.3-16c-5.2,0-10.5,2.2-10.5,2.2v44.2H487V554.7z"/>
	<path fill="#282247" d="M594.4,554.7v-85.4h6.9V499c0,0,9.9-4.6,19.1-4.6c16.2,0,19.8,7.6,19.8,29.2v31.1h-7.1v-30.8
		c0-17.4-1.8-23.1-13.6-23.1c-9.2,0-18.2,4-18.2,4v49.8h-6.9V554.7z"/>
	<path fill="#282247" d="M701.7,544.9c0.3,3.6,3.8,4.8,7.7,5.2l-0.3,5.6c-5.8,0-10.2-1.2-13.4-4.8c0,0-11.1,4.9-22.3,4.9
		c-10.4,0-16.2-6.1-16.2-17.8c0-10.9,5.4-16.1,17.4-17.3l20.1-2.1v-5.5c0-9-4-12.4-11.6-12.4c-8.5,0-22.4,1.7-22.4,1.7l-0.3-5.6
		c0,0,13-2.5,22.9-2.5c12.9,0,18.3,6.3,18.3,18.8v31.8H701.7z M675.4,526.3c-7.9,0.8-10.9,4.5-10.9,11.6c0,7.6,3.3,11.9,9.8,11.9
		c9.6,0,20.3-4.1,20.3-4.1v-21.4L675.4,526.3z"/>
	<path fill="#282247" d="M758.7,495.9l-0.3,6.1c0,0-9.3-1.2-13.8-1.2c-14.2,0-18.3,6.3-18.3,23.2c0,18.6,2.8,25.4,18.3,25.4
		c4.5,0,14-1.1,14-1.1l0.2,6.1c0,0-10.5,1.4-15.6,1.4c-19.1,0-24.3-8.5-24.3-31.8c0-21.6,6.8-29.6,24.4-29.6
		C748.4,494.4,758.7,495.9,758.7,495.9z"/>
	<path fill="#282247" d="M775.8,554.7v-85.4h6.9v50.8l10.1-0.2l18.2-24.3h8.1l-20.2,27l21.2,32h-8.3l-18.8-28.4l-10.2,0.2v28.2h-6.9
		V554.7z"/>
	<path fill="#282247" d="M870.7,502.8c0,0-12.6-1.9-20.4-1.9c-7.3,0-13.9,2.1-13.9,10.1c0,6.2,2.9,7.9,15.8,10.1
		c15.1,2.5,20.7,5.2,20.7,16.5c0,13.8-8.6,18.3-22.8,18.3c-7.2,0-20.2-2.2-20.2-2.2l0.4-6.3c0,0,13.2,2.1,19.2,2.1
		c10.2,0,16.1-2.4,16.1-11.6c0-7.1-3.6-8.6-16.8-10.6c-13.6-2.2-19.9-4.6-19.9-16.1c0-12.9,10.6-16.6,20.9-16.6c8.9,0,21,2.1,21,2.1
		L870.7,502.8z"/>
</g>
</svg>
