<?xml version="1.0" encoding="utf-8"?>
<!-- Generator: Adobe Illustrator 18.0.0, SVG Export Plug-In . SVG Version: 6.00 Build 0)  -->
<!DOCTYPE svg PUBLIC "-//W3C//DTD SVG 1.1//EN" "http://www.w3.org/Graphics/SVG/1.1/DTD/svg11.dtd">
<svg version="1.1" id="Layer_1" xmlns="http://www.w3.org/2000/svg" xmlns:xlink="http://www.w3.org/1999/xlink" x="0px" y="0px"
	 viewBox="0 0 1024 1024" enable-background="new 0 0 1024 1024" xml:space="preserve">
<g>
	<path fill="#2FC3DA" d="M504.9,233.1c3.6,0.4,7.3,0.2,11-0.2c12.6-1.3,16.6,7.3,19.2,20.8c9.9,50.3,33.3,93.7,73.4,126.3
		c14.1,11.5,3.9,19.4,0,29.2c-4.2,10.6-10.7,11.2-20.8,7.8c-50.4-16.6-100.8-16.4-150.7,2.2c-8.2,3.1-15.3,4.2-19.1-5.6
		c-3.4-8.7-14.4-16.3-2.3-27.1c40.2-35.7,59.6-82.7,69.9-133.9C488.4,239.2,492.8,231.7,504.9,233.1z"/>
	<path fill="#F44745" d="M635.1,330.8c-24.3-23.4-37.1-49.5-45.7-82.1c-1-3.7,2.6-7,6.2-5.7c20.8,7.4,39.3,14,57.6,21.1
		c2.1,0.8,4.6,3.8,3.3,9c-4.4,17.6-8.5,35.3-13.4,55.5C642.1,332.1,637.7,333.3,635.1,330.8z"/>
	<path fill="#282247" d="M462.6,467.9c35.2-10.9,66.3-10.7,101.2-1.3c2.1,0.6,2.7,3.3,1.1,4.8c-16.6,15.2-31,28.5-45.8,41.4
		c-3.3,2.8-8.7,2.8-12.1,0c-14.6-12.3-28.8-25.2-45.5-40.1C459.9,471.3,460.5,468.5,462.6,467.9z"/>
	<path fill="#FFC521" d="M426.5,247.7c-3.9,33.5-16.9,59.5-37.7,86c-2.4,3-7.1,2.2-8.3-1.4c-6.7-21-12.6-39.7-18.1-58.6
		c-0.6-2.1,0.2-6,5.2-8.1c16.7-7.2,33.3-14.6,52.3-22.9C423.3,241.3,427,244,426.5,247.7z"/>
</g>
<g>
	<path fill="#2FC3DA" d="M192,644.4h21v109.7h-21V644.4z"/>
	<path fill="#2FC3DA" d="M235.6,754.1v-78.3h20.8v4.4c0,0,10.7-6.3,19.6-6.3c21.9,0,27.6,13.8,27.6,37.8v42.5h-21v-41.8
		c0-11.9-1.6-19.6-11.8-19.6c-7.4,0-14.3,2.8-14.3,2.8v58.6H235.6z"/>
	<path fill="#2FC3DA" d="M326.1,754.1v-78.3h20.8v4.4c0,0,10.8-6.3,18.5-6.3c8.8,0,14.9,2.3,19.6,7.4c0,0,14.4-7.4,26.3-7.4
		c21.3,0,27.6,12.5,27.6,37.8v42.5h-21v-41.8c0-11.9-1.6-19.6-11-19.6c-6.3,0-14.6,3-14.6,3s0.6,11.8,0.6,17.9v40.6h-21v-40.3
		c0-14.1-1.3-21.1-11-21.1c-6.9,0-13.9,2.8-13.9,2.8v58.6H326.1z"/>
	<path fill="#282247" d="M468.5,754.1V641h9.2v39.3c0,0,13.2-6.1,25.4-6.1c21.5,0,26.2,10,26.2,38.7v41.2h-9.4v-40.7
		c0-23-2.5-30.7-18-30.7c-12.2,0-24.1,5.3-24.1,5.3v66.1H468.5z"/>
	<path fill="#282247" d="M610.7,741.1c0.5,4.7,5,6.3,10.2,6.9l-0.5,7.5c-7.7,0-13.5-1.6-17.7-6.3c0,0-14.7,6.4-29.5,6.4
		c-13.8,0-21.5-8-21.5-23.7c0-14.4,7.2-21.3,23-22.9l26.6-2.7v-7.4c0-11.9-5.3-16.4-15.4-16.4c-11.3,0-29.6,2.3-29.6,2.3l-0.5-7.5
		c0,0,17.2-3.3,30.4-3.3c17.1,0,24.3,8.3,24.3,24.9V741.1z M575.9,716.5c-10.5,0.9-14.4,6-14.4,15.4c0,10,4.4,15.8,13,15.8
		c12.7,0,26.9-5.5,26.9-5.5v-28.4L575.9,716.5z"/>
	<path fill="#282247" d="M686.3,676.2l-0.5,8c0,0-12.4-1.6-18.3-1.6c-18.8,0-24.3,8.3-24.3,30.9c0,24.6,3.8,33.7,24.3,33.7
		c5.9,0,18.6-1.4,18.6-1.4l0.3,8c0,0-13.9,1.9-20.7,1.9c-25.4,0-32.3-11.3-32.3-42.1c0-28.7,9.1-39.3,32.4-39.3
		C672.7,674.2,686.3,676.2,686.3,676.2z"/>
	<path fill="#282247" d="M709,754.1V641h9.2v67.4l13.3-0.3l24.1-32.3h10.8l-26.8,35.9l28,42.5h-11l-25.1-37.8l-13.5,0.3v37.4H709z"
		/>
	<path fill="#282247" d="M834.8,685.3c0,0-16.8-2.5-27.1-2.5c-9.7,0-18.5,2.7-18.5,13.3c0,8.1,3.9,10.5,21,13.3
		c20.1,3.3,27.6,6.9,27.6,21.9c0,18.3-11.4,24.3-30.2,24.3c-9.6,0-26.8-2.8-26.8-2.8l0.6-8.3c0,0,17.5,2.7,25.5,2.7
		c13.5,0,21.3-3.1,21.3-15.4c0-9.4-4.7-11.4-22.2-14.1c-18-2.8-26.3-6.1-26.3-21.3c0-17.1,14.1-22.1,27.7-22.1
		c11.8,0,27.7,2.7,27.7,2.7L834.8,685.3z"/>
</g>
</svg>
