<?xml version="1.0" encoding="utf-8"?>
<!-- Generator: Adobe Illustrator 18.0.0, SVG Export Plug-In . SVG Version: 6.00 Build 0)  -->
<!DOCTYPE svg PUBLIC "-//W3C//DTD SVG 1.1//EN" "http://www.w3.org/Graphics/SVG/1.1/DTD/svg11.dtd">
<svg version="1.1" id="Layer_1" xmlns="http://www.w3.org/2000/svg" xmlns:xlink="http://www.w3.org/1999/xlink" x="0px" y="0px"
	 viewBox="0 0 1024 1024" enable-background="new 0 0 1024 1024" xml:space="preserve">
<g>
	<path fill="#2FC3DA" d="M506.6,367.6c4.2,0.5,8.5,0.2,12.7-0.2c14.6-1.5,19.3,8.5,22.3,24.1c11.5,58.4,38.6,108.7,85.2,146.6
		c16.3,13.3,4.5,22.5,0,33.9c-4.9,12.3-12.4,13-24.1,9.1c-58.5-19.3-116.9-19-174.9,2.5c-9.5,3.5-17.7,4.9-22.2-6.5
		c-4-10.1-16.7-18.9-2.6-31.4c46.6-41.4,69.2-96,81.2-155.4C487.4,374.7,492.6,365.9,506.6,367.6z"/>
	<path fill="#F44745" d="M657.7,480.9c-28.2-27.1-43.1-57.4-53-95.3c-1.1-4.3,3-8.1,7.2-6.6c24.1,8.6,45.6,16.2,66.8,24.4
		c2.4,0.9,5.4,4.4,3.8,10.5c-5.1,20.5-9.9,41-15.6,64.4C665.9,482.5,660.7,483.9,657.7,480.9z"/>
	<path fill="#282247" d="M457.5,640.1c40.8-12.6,77-12.4,117.4-1.5c2.5,0.7,3.2,3.9,1.3,5.6c-19.2,17.6-35.9,33.1-53.1,48
		c-3.8,3.3-10.1,3.3-14,0c-17-14.3-33.5-29.3-52.8-46.5C454.4,644,455.1,640.8,457.5,640.1z"/>
	<path fill="#FFC521" d="M415.7,384.5c-4.5,38.9-19.6,69.1-43.8,99.9c-2.7,3.5-8.2,2.5-9.6-1.7c-7.7-24.4-14.7-46.1-21-68
		c-0.7-2.5,0.2-6.9,6-9.4c19.4-8.4,38.6-17,60.7-26.5C411.9,377,416.1,380.3,415.7,384.5z"/>
</g>
</svg>
