<?xml version="1.0" encoding="utf-8"?>
<!-- Generator: Adobe Illustrator 18.0.0, SVG Export Plug-In . SVG Version: 6.00 Build 0)  -->
<!DOCTYPE svg PUBLIC "-//W3C//DTD SVG 1.1//EN" "http://www.w3.org/Graphics/SVG/1.1/DTD/svg11.dtd">
<svg version="1.1" id="Layer_1" xmlns="http://www.w3.org/2000/svg" xmlns:xlink="http://www.w3.org/1999/xlink" x="0px" y="0px"
	 viewBox="0 0 750 250" enable-background="new 0 0 750 250" xml:space="preserve">
<g>
	<path fill="#2FC3DA" d="M111.6,54.9c1.8,0.2,3.6,0.1,5.5-0.1c6.3-0.6,8.3,3.7,9.6,10.3c4.9,25.1,16.6,46.7,36.6,62.9
		c7,5.7,1.9,9.7,0,14.5c-2.1,5.3-5.3,5.6-10.4,3.9c-25.1-8.3-50.2-8.2-75,1.1c-4.1,1.5-7.6,2.1-9.5-2.8c-1.7-4.3-7.2-8.1-1.1-13.5
		c20-17.8,29.7-41.2,34.8-66.7C103.4,57.9,105.6,54.2,111.6,54.9z"/>
	<path fill="#F44745" d="M176.5,103.5c-12.1-11.6-18.5-24.6-22.7-40.9c-0.5-1.8,1.3-3.5,3.1-2.8c10.3,3.7,19.6,7,28.7,10.5
		c1,0.4,2.3,1.9,1.6,4.5c-2.2,8.8-4.2,17.6-6.7,27.6C180,104.2,177.8,104.8,176.5,103.5z"/>
	<path fill="#282247" d="M90.5,171.8c17.5-5.4,33-5.3,50.4-0.6c1.1,0.3,1.4,1.7,0.6,2.4c-8.3,7.6-15.4,14.2-22.8,20.6
		c-1.6,1.4-4.3,1.4-6,0c-7.3-6.1-14.4-12.6-22.6-20C89.2,173.5,89.5,172.1,90.5,171.8z"/>
	<path fill="#FFC521" d="M72.6,62.2c-1.9,16.7-8.4,29.6-18.8,42.9c-1.2,1.5-3.5,1.1-4.1-0.7c-3.3-10.5-6.3-19.8-9-29.2
		c-0.3-1.1,0.1-3,2.6-4c8.3-3.6,16.6-7.3,26-11.4C71,59,72.8,60.3,72.6,62.2z"/>
</g>
<g>
	<path fill="#2FC3DA" d="M258.4,87.9H273v76.5h-14.6V87.9z"/>
	<path fill="#2FC3DA" d="M288.8,164.5v-54.7h14.5v3.1c0,0,7.4-4.4,13.7-4.4c15.3,0,19.2,9.6,19.2,26.3v29.6h-14.6v-29.2
		c0-8.3-1.1-13.7-8.2-13.7c-5.1,0-9.9,2-9.9,2v40.9H288.8z"/>
	<path fill="#2FC3DA" d="M351.9,164.5v-54.7h14.5v3.1c0,0,7.5-4.4,12.9-4.4c6.1,0,10.4,1.6,13.7,5.1c0,0,10.1-5.1,18.4-5.1
		c14.9,0,19.2,8.7,19.2,26.3v29.6H416v-29.2c0-8.3-1.1-13.7-7.7-13.7c-4.4,0-10.2,2.1-10.2,2.1s0.4,8.2,0.4,12.5v28.3H384v-28.1
		c0-9.8-0.9-14.8-7.7-14.8c-4.8,0-9.7,2-9.7,2v40.9H351.9z"/>
	<path fill="#282247" d="M451.3,164.5V85.5h6.4V113c0,0,9.2-4.3,17.7-4.3c15,0,18.3,7,18.3,27v28.8h-6.6V136
		c0-16.1-1.7-21.4-12.6-21.4c-8.5,0-16.8,3.7-16.8,3.7v46.1H451.3z"/>
	<path fill="#282247" d="M550.6,155.4c0.3,3.3,3.5,4.4,7.1,4.8l-0.3,5.2c-5.4,0-9.4-1.1-12.4-4.4c0,0-10.3,4.5-20.6,4.5
		c-9.6,0-15-5.6-15-16.5c0-10.1,5-14.9,16.1-16l18.6-1.9v-5.1c0-8.3-3.7-11.5-10.7-11.5c-7.9,0-20.7,1.6-20.7,1.6l-0.3-5.2
		c0,0,12-2.3,21.2-2.3c11.9,0,16.9,5.8,16.9,17.4V155.4z M526.3,138.2c-7.3,0.7-10.1,4.2-10.1,10.7c0,7,3.1,11,9.1,11
		c8.9,0,18.8-3.8,18.8-3.8v-19.8L526.3,138.2z"/>
	<path fill="#282247" d="M603.3,110.1l-0.3,5.6c0,0-8.6-1.1-12.8-1.1c-13.1,0-16.9,5.8-16.9,21.5c0,17.2,2.6,23.5,16.9,23.5
		c4.2,0,13-1,13-1l0.2,5.6c0,0-9.7,1.3-14.4,1.3c-17.7,0-22.5-7.9-22.5-29.4c0-20,6.3-27.4,22.6-27.4
		C593.8,108.7,603.3,110.1,603.3,110.1z"/>
	<path fill="#282247" d="M619.2,164.5V85.5h6.4v47l9.3-0.2l16.8-22.5h7.5l-18.7,25l19.6,29.6h-7.7L635,138.1l-9.4,0.2v26.1H619.2z"
		/>
	<path fill="#282247" d="M707,116.5c0,0-11.7-1.8-18.9-1.8c-6.8,0-12.9,1.9-12.9,9.3c0,5.7,2.7,7.3,14.6,9.3
		c14,2.3,19.2,4.8,19.2,15.3c0,12.8-8,16.9-21.1,16.9c-6.7,0-18.7-2-18.7-2l0.4-5.8c0,0,12.2,1.9,17.8,1.9c9.4,0,14.9-2.2,14.9-10.7
		c0-6.6-3.3-8-15.5-9.8c-12.6-2-18.4-4.3-18.4-14.9c0-11.9,9.8-15.4,19.3-15.4c8.2,0,19.4,1.9,19.4,1.9L707,116.5z"/>
</g>
</svg>
